<?xml version="1.0" encoding="UTF-8"?>
<svg id="Ebene_1" data-name="Ebene 1" xmlns="http://www.w3.org/2000/svg" viewBox="0 0 80.41 38.32">
  <defs>
    <style>
      .cls-1 {
        fill: #fe3200;
      }
    </style>
  </defs>
  <g>
    <path class="cls-1" d="m7.01,27.12c-4.65,0-7.01-3.47-7.01-8.08,0-6.09,2.84-10.18,9.11-10.18.92,0,1.77.15,2.55.44V.66l5.94-.66c.63,1.07.85,2.4.85,4.46v16.31l1.7.33v5.2c-.37.18-1.88.7-3.47.7-1.81,0-3.51-.63-4.21-2.25-1.22,1.88-3.36,2.36-5.46,2.36Zm4.65-8.08v-5.24c-.52-.22-1.11-.41-1.85-.41-1.73,0-2.77,1.33-2.77,4.21,0,2.58.74,4.58,2.8,4.58.59,0,1.37-.18,1.88-.66-.07-.77-.07-1.44-.07-2.47Z"/>
    <path class="cls-1" d="m21.42,18.6c0-5.94,3.14-10,9.89-10,3.76,0,7.2,1.59,7.2,5.79,0,3.1-1.92,4.94-6.31,4.94-1.88,0-3.58-.26-4.39-.63,0,2.51,1.66,3.25,3.91,3.25s4.24-.63,5.87-1.48l1.55,4.17c-1.88,1.66-5.35,2.58-8.82,2.58-5.72,0-8.89-2.8-8.89-8.63Zm11.07-2.84c.18-.41.22-.81.22-1.11,0-1.14-.85-1.73-2.1-1.73-1.55,0-2.4,1.36-2.62,2.84h4.5Z"/>
    <path class="cls-1" d="m40.09,21.44c0-3.51,2.55-5.09,6.38-5.09,1.55,0,3.14.22,4.32.66v-1.03c0-1.22-.33-2.07-2.73-2.07-1.55,0-3.62.22-5.06.77l-1.29-3.73c1.96-1.77,5.02-2.36,7.27-2.36,5.28,0,8.01,1.73,8.01,6.61v5.87l1.62.29v4.69c-.81.63-2.77.81-3.25.81-1.73,0-3.14-.15-4.17-2.07-1,1.66-3.17,2.29-5.24,2.29-3.43,0-5.87-1.7-5.87-5.65Zm10.63.33v-1.92c-1-.18-1.96-.22-2.77-.22-1.29,0-1.88.48-1.88,1.25,0,.85.44,1.73,1.96,1.73,1.14,0,2.18-.33,2.69-.85Z"/>
    <path class="cls-1" d="m61.07,21.44v-6.27l-1.62-.48v-4.98c.11-.04,1.55-.59,2.99-.59,1.62,0,3.84.22,4.69,2.47,1.22-1.77,3.36-2.69,5.76-2.69,3.58,0,5.98,1.55,5.94,6.24l-.04,5.9,1.62.41v4.76c-.96.52-2.36.78-3.51.78-2.18,0-3.65-.55-4.28-2.21-.66-1.22-.52-5.17-.52-7.64,0-1.92-.59-2.58-1.99-2.58-.77,0-1.55.22-2.03.59.07.59.11,1.4.11,2.25v9.19h-6.38c-.59-.85-.74-2.55-.74-5.13Z"/>
  </g>
  <path class="cls-1" d="m49.26,33.32l-2.39-2.78c-1.33.99-2.52,1.03-3.85,1.03-1.59-.04-4.16-1.07-7.04-.91-2.79.12-5.31,1.91-5.05,4.72l2.26,2.94c1.02-1.07,2.26-1.43,3.9-1.39,1.99,0,4.96,1.19,7.26,1.07,2.61-.12,5.09-1.51,4.91-4.68"/>
</svg>